<?xml version="1.0" standalone="no"?><!DOCTYPE svg PUBLIC "-//W3C//DTD SVG 1.1//EN" "http://www.w3.org/Graphics/SVG/1.1/DTD/svg11.dtd"><svg t="1565290967143" class="icon" viewBox="0 0 1024 1024" version="1.1" xmlns="http://www.w3.org/2000/svg" p-id="2084" width="48" height="48" xmlns:xlink="http://www.w3.org/1999/xlink"><defs><style type="text/css"></style></defs><path d="M511.674077 958.957635c-246.843968 0-446.954565-200.110597-446.954565-446.961728 0-246.842944 200.11162-446.954565 446.954565-446.954565s446.953541 200.11162 446.953541 446.954565C958.627618 758.848061 758.517021 958.957635 511.674077 958.957635zM666.143171 434.985976c0.130983-1.00284 0.191358-2.036379-0.027629-3.069919C647.927297 346.527294 556.733319 282.160311 453.98519 282.160311c-116.118648 0-210.593346 81.520665-210.593346 181.735088 0 53.760414 27.257807 102.201683 78.907141 140.408867l-17.996886 54.502311c-1.163499 3.550873-0.116657 7.449669 2.691295 9.893324 1.702782 1.483794 3.855818 2.269693 6.02318 2.269693 1.382487 0 2.807952-0.348947 4.116761-0.989537l67.596538-34.046421 8.322549 1.688455c20.820188 4.306072 38.788421 8.030907 60.932768 8.030907 6.517437 0 13.122879-0.290619 19.597337-0.844228 2.619664-0.233314 4.844332-1.541099 6.343475-3.461845 24.385387 61.398372 91.559299 105.743346 170.619936 105.743346 20.237927 0 40.738843-4.916986 59.144028-9.543354l52.100612 28.662807c1.381463 0.7552 2.895957 1.163499 4.409426 1.163499 2.050706 0 4.115738-0.698918 5.760191-2.066055 2.910283-2.357697 4.088108-6.256494 3.012613-9.807367l-13.314237-44.578288c44.623313-35.499515 69.094658-77.983095 69.094658-120.263038C830.754253 510.453784 756.858242 442.101024 666.143171 434.985976zM745.553779 700.067306c-3.069919 2.328022-4.365424 6.343475-3.273557 10.039657l8.685823 29.070082-35.631522-19.61371c-1.352811-0.754177-2.879584-1.163499-4.408403-1.163499-0.741897 0-1.499144 0.088004-2.225691 0.319272-19.119453 4.860704-38.875402 9.864672-58.140165 9.864672-89.419566 0-162.16538-61.892629-162.16538-137.954979 0-76.042907 72.745814-137.906883 162.16538-137.906883 87.718831 0 161.848155 63.158459 161.848155 137.906883C812.408419 628.571972 788.662599 667.448398 745.553779 700.067306zM594.997807 524.742209c-10.06831 0-20.151969 10.212596-20.151969 20.338211 0 10.193153 10.083659 20.289092 20.151969 20.289092 15.144932 0 25.154913-10.095939 25.154913-20.289092C620.15272 534.940478 610.142739 524.742209 594.997807 524.742209zM705.718515 524.742209c-9.921977 0-20.005636 10.212596-20.005636 20.338211 0 10.193153 10.083659 20.289092 20.005636 20.289092 15.08865 0 25.27157-10.095939 25.27157-20.289092C730.990085 534.940478 720.833771 524.742209 705.718515 524.742209zM470.018352 590.657454c0 12.424984 1.876744 24.441669 5.033643 36.052101-0.959861-0.233314-1.963725-0.407276-3.025916-0.319272-5.964852 0.523933-12.032034 0.757247-18.026562 0.757247-20.267603 0-37.405935-3.521197-57.222259-7.624654l-11.537777-2.357697c-1.9934-0.436952-4.073782-0.146333-5.892197 0.786922l-50.632167 25.51921 13.153578-39.806611c1.280156-3.89982-0.130983-8.147564-3.448542-10.504238-50.886971-35.7052-76.668147-79.199807-76.668147-129.264039 0-90.016153 86.22685-163.257248 192.233186-163.257248 93.696985 0 176.657442 57.411571 193.797821 133.75226C549.514917 435.68387 470.018352 505.229806 470.018352 590.657454zM388.572388 377.705388c-15.116279 0-30.379914 9.923-30.379914 25.272593 0 15.174608 15.262612 25.358551 30.379914 25.358551 15.043624 0 25.111934-10.183943 25.111934-25.358551C413.684322 387.628388 403.616012 377.705388 388.572388 377.705388zM554.709219 402.979004c0-15.349593-10.067286-25.272593-25.198915-25.272593s-30.305213 9.923-30.305213 25.272593c0.014326 15.174608 15.20326 25.358551 30.305213 25.358551C544.614304 428.337555 554.709219 418.153612 554.709219 402.979004z" p-id="2085" fill="#515151"></path></svg>