<?xml version="1.0" standalone="no"?><!DOCTYPE svg PUBLIC "-//W3C//DTD SVG 1.1//EN" "http://www.w3.org/Graphics/SVG/1.1/DTD/svg11.dtd"><svg t="1561661187263" class="icon" viewBox="0 0 1024 1024" version="1.1" xmlns="http://www.w3.org/2000/svg" p-id="5521" xmlns:xlink="http://www.w3.org/1999/xlink" width="48" height="48"><defs><style type="text/css"></style></defs><path d="M512 0C229.376 0 0 229.376 0 512s229.376 512 512 512 512-229.376 512-512S794.624 0 512 0z m0 955.904c-244.736 0-443.904-199.168-443.904-443.904S267.264 68.096 512 68.096s443.904 199.168 443.904 443.904-199.168 443.904-443.904 443.904z m243.2-382.464c0 18.944-15.36 34.304-34.304 34.304H483.328c-18.944 0-34.304-15.36-34.304-34.304V335.872a34.304 34.304 0 0 1 68.608 0v203.776h203.776c18.432 0 33.792 15.36 33.792 33.792z" p-id="5522" fill="#1296db"></path></svg>