<?xml version="1.0" standalone="no"?><!DOCTYPE svg PUBLIC "-//W3C//DTD SVG 1.1//EN" "http://www.w3.org/Graphics/SVG/1.1/DTD/svg11.dtd"><svg t="1562010434269" class="icon" viewBox="0 0 1024 1024" version="1.1" xmlns="http://www.w3.org/2000/svg" p-id="6579" xmlns:xlink="http://www.w3.org/1999/xlink" width="48" height="48"><defs><style type="text/css"></style></defs><path d="M782.403584 580.268032c-55.95136 0-101.388288 45.584384-101.388288 101.566464 0 56.23808 45.436928 101.566464 101.388288 101.566464 56.008704 0 101.443584-45.266944 101.443584-101.566464C883.847168 625.852416 838.41024 580.268032 782.403584 580.268032zM782.403584 751.183872c-38.137856 0-69.101568-31.080448-69.165056-69.351424 0-38.20544 31.0272-69.2224 69.165056-69.2224 38.260736 0 69.2224 31.082496 69.2224 69.2224C851.625984 720.103424 820.60288 751.183872 782.403584 751.183872z" p-id="6580" fill="#1296db"></path><path d="M390.641664 681.832448l270.362624 0c0-36.943872 16.613376-70.166528 42.795008-92.485632L347.721728 589.346816C373.774336 611.66592 390.641664 644.888576 390.641664 681.832448z" p-id="6581" fill="#1296db"></path><path d="M269.056 580.268032c-55.947264 0-101.388288 45.584384-101.388288 101.566464 0 56.23808 45.441024 101.566464 101.388288 101.566464 56.137728 0 101.38624-45.266944 101.38624-101.566464C370.44224 625.852416 325.255168 580.268032 269.056 580.268032zM269.056 751.183872c-38.199296 0-69.103616-31.080448-69.103616-69.351424 0-38.20544 30.840832-69.2224 69.103616-69.2224 38.262784 0 69.226496 31.082496 69.226496 69.2224C338.282496 720.103424 307.255296 751.183872 269.056 751.183872z" p-id="6582" fill="#1296db"></path><path d="M1012.672512 601.956352l0-6.305792c-1.574912 0.131072-3.08224 0.444416-4.78208 0.444416l-12.273664-55.353344c0-6.43072-16.678912-21.121024-23.28576-23.011328 0 0-110.886912-49.051648-204.847104-72.562688l-162.619392-127.475712c-15.417344-14.186496-44.302336-25.911296-64.126976-25.911296L335.386624 291.780608c-3.364864 0-6.774784 0.401408-10.196992 0.991232 3.407872 9.34912 6.02112 19.073024 7.868416 29.069312 6.90176-2.813952 13.85472-4.212736 20.641792-4.212736l61.362176 0c9.12384 0 16.36352 4.790272 16.36352 18.659328l0 114.806784-122.667008 0c-32.036864 51.48672-89.038848 85.772288-154.062848 85.772288-27.920384 0-54.358016-6.330368-77.985792-17.616896-4.149248 6.469632-6.56384 13.555712-7.467008 21.61664l-0.503808 56.174592 0 4.098048c-11.327488 3.151872-9.94304 52.764672 2.832384 54.597632 5.410816 15.003648 18.188288 25.593856 33.163264 25.593856l43.051008 0c0-67.078144 54.49728-121.675776 121.45664-121.675776l513.347584 0c66.95936 0 121.460736 54.66112 121.460736 121.675776l72.372224 0c15.167488 0 28.194816-10.778624 33.542144-25.911296 11.395072-3.086336 14.034944-13.99808 14.034944-27.297792C1024 616.013824 1022.6176 605.802496 1012.672512 601.956352zM719.659008 451.155968l-24.10496-10.784768c0 0-25.552896-26.478592-28.952576-30.513152-4.657152-5.421056-8.810496-2.963456-7.677952 0.823296 1.388544 4.665344 7.112704 22.319104 10.006528 31.51872 1.25952 3.97312 4.595712 5.363712 6.79936 5.363712l18.499584 0 6.42048 3.592192L457.728 451.155968l0-115.245056c0-10.846208 4.15744-18.282496 17.18272-18.282496l56.762368 0c17.184768 0 42.22976 10.14784 55.63392 22.56896l140.967936 110.393344c0.821248 0.249856 1.513472 0.436224 2.265088 0.567296L719.659008 451.158016z" p-id="6583" fill="#1296db"></path><path d="M309.393408 355.096576c0-85.587968-69.259264-154.970112-154.69568-154.970112C69.259264 200.126464 0 269.508608 0 355.096576c0 85.587968 69.259264 154.970112 154.69568 154.970112C240.132096 510.066688 309.393408 440.684544 309.393408 355.096576zM68.278272 355.794944l0-17.412096 76.367872 0 0-74.131456 17.90976 0 0 74.131456 76.367872 0 0 17.412096L162.555904 355.794944l0 77.115392-17.90976 0 0-77.115392L68.278272 355.794944z" p-id="6584" fill="#1296db"></path></svg>